<svg xmlns="http://www.w3.org/2000/svg" viewBox="0 0 200 200"><defs><style>.cls-1{fill:#f2f6fb;}.cls-2{fill:#a1a3a7;}</style></defs><title>avatar-default</title><g id="avatar__background"><rect class="cls-1" width="200" height="200"/></g><g id="avatar__icon"><path class="cls-2" d="M161.6,181a7.7,7.7,0,0,1-7.7-7.7V157.9a23.12,23.12,0,0,0-23.1-23.1H69.2a23.12,23.12,0,0,0-23.1,23.1v15.4a7.7,7.7,0,0,1-15.4,0V157.9a38.54,38.54,0,0,1,38.5-38.5h61.6a38.54,38.54,0,0,1,38.5,38.5v15.4A7.7,7.7,0,0,1,161.6,181Z"/><path class="cls-2" d="M100,104a38.5,38.5,0,1,1,38.5-38.5A38.54,38.54,0,0,1,100,104Zm0-61.6a23.1,23.1,0,1,0,23.1,23.1A23.12,23.12,0,0,0,100,42.4Z"/></g></svg>