    <svg class="login__logo" xmlns="http://www.w3.org/2000/svg" id="Layer_1" data-name="CORESkills" viewBox="0 0 478.73 72.02">
      <defs/>
      <path class="fill-black" d="M0 37.82a32.41 32.41 0 0 1 8.77-22A33.37 33.37 0 0 1 19.18 8.4a33.05 33.05 0 0 1 14-2.83 32.82 32.82 0 0 1 16.29 3.88 25.36 25.36 0 0 1 10.28 10.28l-13.61 9.68a11.36 11.36 0 0 0-2.43-3.92A12.11 12.11 0 0 0 40.38 23a14.13 14.13 0 0 0-3.79-1.28 21.12 21.12 0 0 0-3.79-.37 13.28 13.28 0 0 0-11.19 5.44 17 17 0 0 0-2.61 5.5 22.17 22.17 0 0 0-.87 6.08 20.91 20.91 0 0 0 1 6.48A16.93 16.93 0 0 0 22 50.34a14.38 14.38 0 0 0 4.7 3.79 13.69 13.69 0 0 0 6.3 1.41 17.5 17.5 0 0 0 3.75-.41 13.92 13.92 0 0 0 3.7-1.37 12.43 12.43 0 0 0 3.19-2.47 10.75 10.75 0 0 0 2.24-3.7l14.53 8.68a18.68 18.68 0 0 1-4.41 6.4 28.26 28.26 0 0 1-6.76 4.75 35.88 35.88 0 0 1-8.13 2.92 37.48 37.48 0 0 1-8.46 1 30 30 0 0 1-13.2-2.88 33.4 33.4 0 0 1-10.36-7.62 34.6 34.6 0 0 1-6.71-10.78A33 33 0 0 1 0 37.82zM94.64 71.35a31.3 31.3 0 0 1-13.43-2.83 33.31 33.31 0 0 1-10.33-7.45 33.72 33.72 0 0 1-6.66-10.55 32.56 32.56 0 0 1-2.38-12.24 31.76 31.76 0 0 1 2.47-12.34 32.76 32.76 0 0 1 6.89-10.46 33.67 33.67 0 0 1 10.51-7.21A32.35 32.35 0 0 1 95 5.57a31.3 31.3 0 0 1 13.43 2.83 33.1 33.1 0 0 1 10.33 7.49 33.64 33.64 0 0 1 6.62 10.6 33.07 33.07 0 0 1 2.33 12.15 31.41 31.41 0 0 1-2.47 12.29 33.16 33.16 0 0 1-6.85 10.41 33.64 33.64 0 0 1-10.46 7.27 32.05 32.05 0 0 1-13.29 2.74zM79.93 38.46a22.06 22.06 0 0 0 .91 6.35 16.54 16.54 0 0 0 2.74 5.43 13.74 13.74 0 0 0 4.62 3.84 15.66 15.66 0 0 0 13.29 0 13.5 13.5 0 0 0 4.61-3.93 17 17 0 0 0 2.65-5.53 23.24 23.24 0 0 0 .87-6.3 22.36 22.36 0 0 0-.91-6.35 15.62 15.62 0 0 0-2.79-5.39 14.06 14.06 0 0 0-4.66-3.75 14.28 14.28 0 0 0-6.53-1.42 14 14 0 0 0-6.62 1.47 13.62 13.62 0 0 0-4.62 3.88 16.4 16.4 0 0 0-2.69 5.44 22.8 22.8 0 0 0-.87 6.26zM135 70.8V5.94h29.78a19.69 19.69 0 0 1 8.77 2 22.67 22.67 0 0 1 6.9 5.12 23.88 23.88 0 0 1 4.55 7.17 21.61 21.61 0 0 1 1.65 8.18A23.13 23.13 0 0 1 184.16 39a21.48 21.48 0 0 1-6.85 8L191 70.8h-20.1l-11.41-19.92h-6.67V70.8zm17.81-35.45h11.24a4 4 0 0 0 3.06-1.82 8.22 8.22 0 0 0 1.42-5.12 7.34 7.34 0 0 0-1.65-5.16 4.6 4.6 0 0 0-3.29-1.78h-10.77zM242.62 55.27V70.8h-46.23V5.94h45.4v15.53H214.2v9.13h23.57V45H214.2v10.27zM290.93 19.55a13.47 13.47 0 0 0-2.93-2.47 26.39 26.39 0 0 0-4.11-2.15 29.06 29.06 0 0 0-5-1.55 26.45 26.45 0 0 0-5.62-.59c-5.05 0-8.76.94-11.1 2.83a9.45 9.45 0 0 0-3.52 7.76 8.67 8.67 0 0 0 1 4.39 8.25 8.25 0 0 0 3.15 3 24.06 24.06 0 0 0 5.35 2.15c2.13.61 4.65 1.25 7.58 1.91a79.36 79.36 0 0 1 9.09 2.52 26.37 26.37 0 0 1 6.94 3.51 14.22 14.22 0 0 1 4.43 5.14 16.51 16.51 0 0 1 1.5 7.4 17.06 17.06 0 0 1-1.82 8.09 16.24 16.24 0 0 1-5 5.66 21.64 21.64 0 0 1-7.45 3.29 39.17 39.17 0 0 1-9.32 1 43.07 43.07 0 0 1-14.2-2.33 39.58 39.58 0 0 1-12.2-6.81l3.93-6.94a21.74 21.74 0 0 0 3.79 3.11 31 31 0 0 0 5.3 2.78 37.9 37.9 0 0 0 6.39 2 32.31 32.31 0 0 0 7.18.78q6.93 0 10.78-2.47a8.22 8.22 0 0 0 3.83-7.4 8.23 8.23 0 0 0-1.23-4.61 10.43 10.43 0 0 0-3.61-3.24 27.9 27.9 0 0 0-5.89-2.43c-2.35-.69-5-1.41-8-2.14a79.73 79.73 0 0 1-8.68-2.56 23.41 23.41 0 0 1-6.26-3.29 12.32 12.32 0 0 1-3.79-4.66 15.36 15.36 0 0 1-1.28-6.58 18.67 18.67 0 0 1 1.73-8.22 17.31 17.31 0 0 1 4.85-6 21 21 0 0 1 7.4-3.7 33.65 33.65 0 0 1 9.31-1.23 32.64 32.64 0 0 1 21.29 7.4zM308.19 70.8V6h8.22v35.84l33.44-35.9h8.86l-26 28.59 27.5 36.27h-8.95l-23.61-31.52L316.41 51v19.8z" class="cls-1"/>
      <path class="fill-primary--lightest" d="M410.41 67.33V4.69a4.11 4.11 0 0 1 4.11-4.11 4.11 4.11 0 0 1 4.11 4.11v62.64a4.11 4.11 0 0 1-4.11 4.11 4.11 4.11 0 0 1-4.11-4.11z"/>
      <path class="fill-black" d="M472 19.55a13.47 13.47 0 0 0-2.92-2.47 26.39 26.39 0 0 0-4.11-2.15 29.63 29.63 0 0 0-5-1.55 26.45 26.45 0 0 0-5.62-.59q-7.59 0-11.1 2.83a9.42 9.42 0 0 0-3.52 7.76 8.67 8.67 0 0 0 1 4.39 8.25 8.25 0 0 0 3.15 3 24.16 24.16 0 0 0 5.34 2.15q3.19.91 7.59 1.91a79.36 79.36 0 0 1 9.09 2.52 26.37 26.37 0 0 1 6.94 3.51 14.1 14.1 0 0 1 4.38 5.14 16.37 16.37 0 0 1 1.51 7.4 17.06 17.06 0 0 1-1.82 8.09 16.24 16.24 0 0 1-5 5.66 21.64 21.64 0 0 1-7.45 3.29 39.17 39.17 0 0 1-9.32 1A43.07 43.07 0 0 1 441 69.11a39.47 39.47 0 0 1-12.2-6.81l3.93-6.94a21.74 21.74 0 0 0 3.79 3.11 31 31 0 0 0 5.3 2.78 37.9 37.9 0 0 0 6.39 2 32.29 32.29 0 0 0 7.17.78q6.95 0 10.79-2.47a8.22 8.22 0 0 0 3.83-7.4 8.23 8.23 0 0 0-1.23-4.61 10.43 10.43 0 0 0-3.61-3.24 27.9 27.9 0 0 0-5.89-2.43c-2.35-.69-5-1.41-8-2.14a80.4 80.4 0 0 1-8.68-2.56 23.49 23.49 0 0 1-6.25-3.29 12.44 12.44 0 0 1-3.8-4.66 15.51 15.51 0 0 1-1.27-6.58 18.54 18.54 0 0 1 1.73-8.21 17.39 17.39 0 0 1 4.84-6 21.18 21.18 0 0 1 7.4-3.7 33.77 33.77 0 0 1 9.32-1.23 32.64 32.64 0 0 1 21.29 7.4z" class="cls-1"/>
      <rect class="fill-primary" width="8.22" height="63.15" x="388.94" y="8.29" rx="4.11" ry="4.11"/>
      <rect class="fill-primary--darkest" width="8.22" height="37.87" x="367.47" y="33.57" rx="4.11" ry="4.11"/>
    </svg>