<svg    xmlns="http://www.w3.org/2000/svg"
        height="96"
        viewBox="0 0 96 96"
        width="96">

    <rect   height="100%"
            fill="none"
            width="100%" />

    <path   fill="currentColor"
            opacity="0.75"
            d="M486.707,300.424H452.7a6,6,0,0,0-12,0H406.682a4,4,0,0,0,0,8h2.737a11.894,11.894,0,0,0-.736,4.005v32.01a12.006,12.006,0,0,0,12,12h14.341L421.315,377.78a4,4,0,1,0,6.734,4.325l16.381-25.5a1.408,1.408,0,0,0,.064-.164h.768c.032.052.032.108.064.16l16.381,25.5a4,4,0,1,0,6.73-4.325l-13.7-21.335H472.7a12.006,12.006,0,0,0,12-12v-32.01a11.891,11.891,0,0,0-.736-4.005h2.737a4,4,0,1,0,0-8Zm-10,44.018a4.008,4.008,0,0,1-4,4H420.686a4.005,4.005,0,0,1-4-4v-32.01a4,4,0,0,1,4-4H472.7a4.005,4.005,0,0,1,4,4Z"
            transform="translate(-398.679 -290.423)" />

</svg>
