<svg    xmlns="http://www.w3.org/2000/svg"
        height="96"
        viewBox="0 0 96 96"
        width="96">

    <rect   height="100%"
            fill="none"
            width="100%" />

    <path   d="M616.64,294.925a4.01,4.01,0,0,0-4.065.116L593.24,307.193v-.036a4,4,0,1,0-8,0v.508l-23.163-12.744c-.076-.04-.16-.056-.24-.092a3.227,3.227,0,0,0-.328-.128,4.028,4.028,0,0,0-1.237-.252c-.044,0-.08-.024-.124-.024l-.04.008a3.955,3.955,0,0,0-1.368.276,3.365,3.365,0,0,0-.324.152,2.939,2.939,0,0,0-.4.18l-25.468,16.005a4,4,0,0,0-1.868,3.385v64.02a4,4,0,0,0,6.13,3.389l19.334-12.152v.036a4,4,0,1,0,8,0v-.512l23.171,12.744c.072.04.152.052.224.088a3.74,3.74,0,0,0,.352.136,3.821,3.821,0,0,0,1.2.244c.052,0,.092.028.14.028l.048-.008a3.956,3.956,0,0,0,1.365-.276,3.256,3.256,0,0,0,.32-.144,4.03,4.03,0,0,0,.4-.184l25.46-16a4,4,0,0,0,1.873-3.389v-64.02A4.011,4.011,0,0,0,616.64,294.925Zm-77.956,76.288V316.644l17.461-10.975v54.569Zm25.464-66.02,21.09,11.608v54.885l-21.09-11.6Zm46.559,55.045L593.24,371.213V316.644l17.466-10.975Z"
            fill="currentColor"
            pacity="0.75"
            transform="translate(-526.679 -290.426)" />

</svg>
