<svg xmlns="http://www.w3.org/2000/svg"
     viewBox="0 0 32 32">

    <defs>
        <style>
        .a {
            fill: currentColor;
        }
        </style>
    </defs>

    <rect   height="100%"
            fill="none"
            width="100%" />

    <path   class="a"
            d="M8.4,2a2.7,2.7,0,1,0,2.7,2.7A2.708,2.708,0,0,0,8.4,2M5.7,8.75A2.691,2.691,0,0,0,3,11.45v8.1H5.7V29h6.75V14.96l3.416,5.94H19.16l1.39-1.809V29h5.4V22.25H27.3V18.2a2.691,2.691,0,0,0-2.7-2.7H21.225a2.676,2.676,0,0,0-2.025.918c-.445.567-.918,1.188-1.35,1.782h-.418L12.45,9.641a2.554,2.554,0,0,0-2.025-.891H5.7M23.25,10.1a2.025,2.025,0,1,0,2.025,2.025A2.022,2.022,0,0,0,23.25,10.1Z"
            transform="translate(1 1)" />

</svg>
