<svg    xmlns="http://www.w3.org/2000/svg"
        height="96"
        viewBox="0 0 96 96"
        width="96">

    <rect   height="100%"
            fill="none"
            width="100%" />

    <path   fill="currentColor"
            d="M542.7,296.425H478.673a12.06,12.06,0,0,0-11.992,12v48.027a12.052,12.052,0,0,0,12,11.992h64.028a12.055,12.055,0,0,0,12-12V308.421A12.061,12.061,0,0,0,542.7,296.425Zm-64.008,8h64a4,4,0,0,1,3.549,2.241l-35.547,24.888-35.547-24.884A4,4,0,0,1,478.7,304.427ZM542.7,360.445H478.693a4.025,4.025,0,0,1-4.009-4V316.115l33.714,23.6a4.016,4.016,0,0,0,4.589,0l33.719-23.6v40.32A4.03,4.03,0,0,1,542.7,360.445Z"
            opacity="0.75"
            transform="translate(-462.679 -284.424)" />

</svg>
